PathFileType	4	(X/Y/Z)	52_2_64_p1_0-335_filt_butterworth.trc
DataRate	CameraRate	NumFrames	NumMarkers	Units	OrigDataRate	OrigDataStartFrame	OrigNumFrames
48.0	48.0	6	27	m	48.0	167	335
Frame#	Time	RHip			RKnee			RAnkle			RBigToe			RSmallToe			RHeel			LHip			LKnee			LAnkle			LBigToe			LSmallToe			LHeel			Neck			Head			Nose			RShoulder			RElbow			RWrist			RThumb			RIndex			RPinky			LShoulder			LElbow			LWrist			LThumb			LIndex			LPinky			
		X1	Y1	Z1	X2	Y2	Z2	X3	Y3	Z3	X4	Y4	Z4	X5	Y5	Z5	X6	Y6	Z6	X7	Y7	Z7	X8	Y8	Z8	X9	Y9	Z9	X10	Y10	Z10	X11	Y11	Z11	X12	Y12	Z12	X13	Y13	Z13	X14	Y14	Z14	X15	Y15	Z15	X16	Y16	Z16	X17	Y17	Z17	X18	Y18	Z18	X19	Y19	Z19	X20	Y20	Z20	X21	Y21	Z21	X22	Y22	Z22	X23	Y23	Z23	X24	Y24	Z24	X25	Y25	Z25	X26	Y26	Z26	X27	Y27	Z27	
167	3.4791666666666665	0.23893350928808482	0.5407259450451926	0.47419483919333105	0.15233252033144584	0.6696073131446615	0.8944935929502353	0.06336435788321734	0.7702776467251049	1.2739464269208052	0.006630700570425236	0.6196673662472268	1.3201208460430363	0.07471898607809688	0.6208598866729451	1.3274219849570736	0.019109999511878986	0.8854303873494981	1.3261885854049695	0.04860392169205438	0.5517105150083392	0.43622734452733114	-0.05971526370290009	0.6873469472180278	0.8462401260603097	-0.1383242263024739	0.7730725656124346	1.2218465783438741	-0.13909483001715756	0.6273190040268761	1.2736086158392825	-0.19766972679074105	0.6539529796350287	1.2607038263453403	-0.1375668673292213	0.8494825985825265	1.2852648719463025	0.2481234350010761	0.45016095645961696	-0.017901387990270003	0.30968265935752776	0.36168803076483336	-0.2519551529643712	0.27665955975853523	0.3512524244457129	-0.10935409861382292	0.3724054285388325	0.4397774012889065	0.1070058576194822	0.35366757200299365	0.5601814781298965	0.38508639573337056	0.28407382040660484	0.5188159459295147	0.6207714374997964	0.21047209365610936	0.4677691987018433	0.707364816375103	0.2238436352840231	0.5133559119786352	0.7438681835180073	0.2567287736337066	0.5429243120213354	0.7437396249442338	0.08716932046577239	0.4796632170111143	0.015874053910097937	-0.0030398984275971765	0.476763978118264	0.26884944007223976	-0.045207970860383126	0.49936607660817506	0.49950927963662867	-0.026173130393845976	0.5209794779107026	0.6050400622324436	-0.06047597613554656	0.5172415799029109	0.653473967157036	-0.09614194766872242	0.5181977068517591	0.608425623711025
168	3.5	0.2389190238255192	0.5406772881672406	0.47409607696196027	0.15222343107810812	0.6696251514661706	0.8956094025441145	0.06335934324636577	0.7702972035537194	1.2739452795417012	0.006579810295660376	0.6196114217463871	1.3202788816481266	0.0747098034179807	0.6206803761672626	1.3274722695297076	0.01913927830987016	0.885410127499139	1.3261637894906122	0.04884503424323647	0.5518112772322662	0.4362766523718811	-0.05807442597205931	0.688125341798195	0.8462942821853326	-0.13630362338777963	0.7719545991711875	1.2206879136718185	-0.1405123436031286	0.6282696755467989	1.274342572501994	-0.19735607659544968	0.6539540785397273	1.2615123440686338	-0.13767115360831395	0.8487447014202114	1.2848595385860568	0.24836448001126168	0.44999627509548623	-0.01918755367338809	0.3096867271235451	0.36172433072620225	-0.2519648551751598	0.27686456884443794	0.35184038182449123	-0.10942298931864791	0.37431578232100393	0.440211570995066	0.10582601996168584	0.3536772404860582	0.5602485683342101	0.3850705388227261	0.28419164483660064	0.5187417441971744	0.620799382256552	0.21025942169858197	0.4678854377911085	0.7091853885992737	0.2238268523426387	0.513657511413901	0.7465474691227592	0.25687418056817474	0.5434359702713869	0.7440870011937066	0.08746104939765255	0.4796477225344253	0.014273685587774006	-0.0027829677183934384	0.47675369442788473	0.26705968296410826	-0.04504726240271238	0.4995191847079305	0.4992197366276587	-0.026212211465956682	0.5210254637437195	0.6051174218915656	-0.06041403530114847	0.51691079512135	0.6537081688018029	-0.09552208595208447	0.5237977087044158	0.6092556029701024
169	3.520833333333333	0.23875138607396346	0.5403114510458864	0.47403720672910504	0.15221576237411852	0.6695453516209786	0.8972550887397668	0.06335972782060466	0.7703060467878358	1.273934738182526	0.006635545827194283	0.619935852328168	1.3204354184070062	0.07473668671324622	0.6207973018177191	1.3274846648995136	0.019164656067391334	0.8854477061015558	1.3261535263152466	0.048718757294828066	0.5518312125193364	0.43619966985857034	-0.05677748091982469	0.6886917437442414	0.8444990941721016	-0.13449358164567565	0.7704695965181667	1.2185062691917827	-0.14236145631359165	0.6277857489014835	1.2748573424587881	-0.19691865347518733	0.6539131014140296	1.2606942154257235	-0.1378466876147084	0.8482415444066714	1.284486946226292	0.24858053436310823	0.4498539977397954	-0.02031310358445326	0.3096861314045021	0.3617493052518004	-0.25194956525348633	0.2767756036388245	0.35139709533605107	-0.10944114042001674	0.3756121184381467	0.44049495851786197	0.10496344470223615	0.35368518548094663	0.5603043579248015	0.3850673840990528	0.2842578001984528	0.5186433571971955	0.6208245662365499	0.2101402484900951	0.46819698041703617	0.7105737159664561	0.223810832397744	0.5143033525704012	0.7487260080489412	0.25692604585781453	0.5436939372396602	0.7443505425709414	0.0876606798408456	0.47967083003700306	0.01314437421760652	-0.0027475552536721922	0.4766643824560357	0.26582772833841856	-0.04515032993920515	0.49954400915067876	0.4996251507812166	-0.02626392443338284	0.5208699707227159	0.6051567378384322	-0.06080355310021574	0.517914054468844	0.6540233852504462	-0.09502622403420147	0.5274185504696987	0.610030409938425
170	3.5416666666666665	0.2386347200538947	0.539843493320691	0.47398453466509116	0.15223260606844818	0.6695235176442205	0.898649906804607	0.063358148301004	0.7703107573869565	1.2739305817141564	0.006764449906120632	0.620509804564248	1.3205460164632474	0.0747948824655418	0.6209182232999797	1.32743381541725	0.019138553108127197	0.8854894616917129	1.3262011226815569	0.04870242052308434	0.5518620459686062	0.4361372108521446	-0.056652066605244036	0.6889672414324257	0.8432650684486622	-0.13383468434630025	0.7695183548232891	1.216770625977692	-0.14226104697001682	0.6273888164240314	1.2744261469418905	-0.19676449839928364	0.6538507757237312	1.2590572906367712	-0.13792334077336194	0.8480949053472087	1.2843309322555443	0.24864504491637607	0.4498129614639843	-0.020585063993979164	0.30968356589904383	0.36175113636173634	-0.25194052216783736	0.27670356653623884	0.35114611486636377	-0.10941408098248173	0.37583189334061434	0.4405671071888253	0.10500535902553004	0.35369777329986624	0.560321641836176	0.385075511044396	0.28427190287148724	0.5185749332600421	0.6208448329922098	0.2101562923135149	0.4686017417569973	0.7110563957031768	0.223802480032182	0.5151276110926147	0.7496890184762414	0.25692403574599915	0.5437333136893936	0.7441881741920614	0.08771142907477095	0.47969456259217175	0.01289431214254579	-0.0027811063766758747	0.4764820328983611	0.2655873292804032	-0.045338482538069116	0.49947392209830277	0.5001691794548826	-0.026292128025546906	0.5204826056951252	0.6050843961165343	-0.062326950345792	0.5220084308081093	0.6541781679306211	-0.09467320497307337	0.5281748369374433	0.6100679038994822
171	3.5625	0.2388292192063686	0.5406108781334863	0.4741051123742733	0.1521417818687536	0.6695937611615908	0.8992804007076234	0.06334537824471881	0.7703134877257174	1.2739377839017334	0.0067138080797800965	0.6197855896165703	1.3200801793357282	0.07487465301616292	0.6209814540400613	1.3273469029907736	0.01907889945190304	0.8855017475270512	1.3262691721983593	0.048772561904423944	0.5518716248323128	0.4361377911888214	-0.057171762490644665	0.6890875506109644	0.8439288127117881	-0.13453979420699913	0.7693478917307954	1.2166255193079243	-0.14001577888035413	0.627120416679843	1.272718009402943	-0.19680796277194756	0.6536884852140544	1.2579113559076385	-0.1379946281746874	0.8482856331070016	1.2845249991753551	0.24862585756754568	0.449818196947272	-0.020448312805645186	0.3096816562804483	0.3617296175819618	-0.25194617439842565	0.27668266681142023	0.3511547535974173	-0.10935979095112713	0.3755164516582864	0.44062395167846147	0.1060352252865202	0.3537093368311091	0.5603188541433114	0.3850890705982773	0.28425765162225364	0.5185451121429634	0.6208413846994449	0.2100621465015201	0.46782405423525375	0.7104767385731287	0.22381445380214826	0.5156148024374257	0.7496627095834207	0.25701166084813093	0.5436376721716243	0.7431193862426213	0.08769245036526456	0.4797122689118646	0.013064927017910014	-0.002807634784381823	0.47632937184736845	0.26575823244270674	-0.04537720792404034	0.4993653322043876	0.5000170677204228	-0.02616080833732839	0.5212739283073743	0.605068000676354	-0.06452199905609302	0.5279011966802515	0.6544240125009485	-0.09418525609852668	0.5284067966896615	0.6102356221329692
172	3.583333333333333	0.23968917853361216	0.544331906933844	0.4746377121624299	0.15202707259186557	0.6694341117739988	0.8985625983964155	0.06332728050559205	0.7702868465831376	1.2739395172217662	0.0061856194148884065	0.6158864335619608	1.318333963772284	0.07494348827448302	0.6210094321963815	1.3272676289500807	0.01904498628306036	0.8854866517956292	1.3262860412096156	0.04881369072518237	0.5518589498920374	0.4361606415170423	-0.057501182043378424	0.689174213623443	0.8451161262212082	-0.13636646568587088	0.7695716591780837	1.2180628502572084	-0.13802595100446766	0.6268874476238788	1.271221765757881	-0.19685679858428953	0.6534687721341881	1.2576192126860064	-0.13809947350871157	0.8489123327848962	1.2849949408053085	0.2486016187855667	0.44983730505723846	-0.02034913253636938	0.3096789627068728	0.3616983556857566	-0.2519475359548969	0.2766814617343745	0.3512081291803678	-0.10931427639421892	0.3752020451162714	0.4407605197024802	0.10747412210708786	0.3537165210382809	0.5603154011275419	0.38509347231903257	0.28424243026048546	0.518534687124804	0.6208057425582596	0.20955347882460135	0.4642098634042341	0.7084061751814923	0.22385224043832747	0.5156358711855854	0.749330346046603	0.2571960377256722	0.5435449719520664	0.7414917603745587	0.08767184922135438	0.4797357570339294	0.013230850683224703	-0.0028181297334213774	0.47629823433714896	0.26587085845578107	-0.044731519926344276	0.49944591890423085	0.4991886947664508	-0.02570563618516118	0.5252719773276043	0.6055527580076446	-0.06599017877269282	0.5318606852077233	0.6554751887107519	-0.09324262591342408	0.5294910917396595	0.6115445052746902
